Coordinates
version=1
nRows=32
nColumns=18
inDegrees=yes

Units are S.I. units (second, meters, Newtons, ...)
If the header above contains a line with 'inDegrees', this indicates whether rotational values are in degrees (yes) or radians (no).

endheader
time	ground_thorax_rot_x	ground_thorax_rot_y	ground_thorax_rot_z	ground_thorax_tx	ground_thorax_ty	ground_thorax_tz	clav_prot	clav_elev	scapula_abduction	scapula_elevation	scapula_upward_rot	scapula_winging	plane_elv	shoulder_elv	axial_rot	elbow_flexion	pro_sup
      0.00000000	      3.38856826	     -1.82198104	     -8.12771968	     -0.00502496	      0.00449707	      0.00104764	    -25.24893130	     -5.31818079	    -16.80290239	     -4.99524127	     13.06181977	      5.73223855	    -30.18150839	     16.39725473	     61.14491681	      0.00000000	     34.32000000
      0.01000000	      3.38825292	     -1.82148625	     -8.12762172	     -0.00500398	      0.00448783	      0.00111201	    -25.24890023	     -5.31817291	    -16.80268048	     -4.99530298	     13.06206254	      5.73210404	    -30.18141370	     16.39749865	     61.14493248	      0.00000000	     34.32000000
      0.02000000	      3.38811157	     -1.82143113	     -8.12780094	     -0.00501063	      0.00448219	      0.00113612	    -25.24893513	     -5.31804426	    -16.80269788	     -4.99523960	     13.06218999	      5.73202460	    -30.18140575	     16.39785062	     61.14493806	      0.00000000	     34.32000000
      0.03000000	      3.38828986	     -1.82226827	     -8.12837438	     -0.00504601	      0.00449842	      0.00107422	    -25.24909519	     -5.31775661	    -16.80318058	     -4.99496630	     13.06195005	      5.73197169	    -30.18156851	     16.39810842	     61.14491830	      0.00000000	     34.32000000
      0.04000000	      3.38841705	     -1.82325351	     -8.12893204	     -0.00506804	      0.00451814	      0.00101074	    -25.24929281	     -5.31744005	    -16.80376116	     -4.99466119	     13.06166404	      5.73191800	    -30.18175298	     16.39830032	     61.14489321	      0.00000000	     34.32000000
      0.05000000	      3.38810365	     -1.82347724	     -8.12909305	     -0.00505288	      0.00451663	      0.00103813	    -25.24942295	     -5.31723098	    -16.80396779	     -4.99453902	     13.06177950	      5.73180848	    -30.18177970	     16.39862529	     61.14489034	      0.00000000	     34.32000000
      0.06000000	      3.38747256	     -1.82307238	     -8.12905373	     -0.00502849	      0.00450171	      0.00113277	    -25.24948367	     -5.31707256	    -16.80384546	     -4.99454054	     13.06223718	      5.73163680	    -30.18169041	     16.39915205	     61.14490518	      0.00000000	     34.32000000
      0.07000000	      3.38706398	     -1.82283718	     -8.12925864	     -0.00503146	      0.00449349	      0.00120538	    -25.24951940	     -5.31684385	    -16.80378892	     -4.99444534	     13.06253732	      5.73147865	    -30.18167551	     16.39970290	     61.14490798	      0.00000000	     34.32000000
      0.08000000	      3.38727678	     -1.82308933	     -8.12972377	     -0.00505802	      0.00448816	      0.00121660	    -25.24952462	     -5.31660538	    -16.80395396	     -4.99421846	     13.06236878	      5.73143216	    -30.18180481	     16.40003598	     61.14488383	      0.00000000	     34.32000000
      0.09000000	      3.38796164	     -1.82338845	     -8.13006911	     -0.00508461	      0.00446326	      0.00121699	    -25.24946251	     -5.31653331	    -16.80410078	     -4.99405315	     13.06196256	      5.73150697	    -30.18196521	     16.40016200	     61.14484845	      0.00000000	     34.32000000
      0.10000000	      3.41616165	     -1.82613423	     -8.13815502	     -0.00509961	      0.00445226	      0.00130700	    -25.24370642	     -5.31458606	    -16.80108544	     -4.98933919	     13.05103785	      5.73366906	    -30.18593881	     16.40990052	     61.14364956	      0.00000000	     34.32000000
      0.11000000	      3.41620815	     -1.82666917	     -8.13862101	     -0.00518439	      0.00443782	      0.00133595	    -25.24377428	     -5.31437801	    -16.80122206	     -4.98919099	     13.05107721	      5.73357962	    -30.18609005	     16.41048518	     61.14364078	      0.00000000	     34.32000000
      0.12000000	      3.41625422	     -1.82767709	     -8.13944160	     -0.00526509	      0.00444891	      0.00134354	    -25.24390049	     -5.31394251	    -16.80161696	     -4.98883176	     13.05095193	      5.73344603	    -30.18639253	     16.41116749	     61.14361433	      0.00000000	     34.32000000
      0.13000000	      3.42439225	     -1.85633826	     -8.15495397	     -0.00518825	      0.00442072	      0.00138006	    -25.24676781	     -5.30159183	    -16.81214917	     -4.97835087	     13.04645070	      5.72991274	    -30.19665941	     16.43199749	     61.14214941	      0.00000000	     34.32000000
      0.14000000	      3.42447458	     -1.85629628	     -8.15461091	     -0.00516782	      0.00441233	      0.00138766	    -25.24676992	     -5.30163806	    -16.81200710	     -4.97844821	     13.04668685	      5.72987697	    -30.19664875	     16.43220899	     61.14212968	      0.00000000	     34.32000000
      0.15000000	      3.42422043	     -1.85610123	     -8.15422833	     -0.00514365	      0.00440535	      0.00141113	    -25.24682812	     -5.30164015	    -16.81180836	     -4.97858771	     13.04720109	      5.72975032	    -30.19656729	     16.43265846	     61.14212813	      0.00000000	     34.32000000
      0.16000000	      3.42385115	     -1.85580913	     -8.15375947	     -0.00512144	      0.00440110	      0.00142792	    -25.24690126	     -5.30166763	    -16.81154733	     -4.97878445	     13.04785627	      5.72959808	    -30.19642180	     16.43314888	     61.14213541	      0.00000000	     34.32000000
      0.17000000	      3.42388087	     -1.85556733	     -8.15305005	     -0.00510358	      0.00439472	      0.00139724	    -25.24692528	     -5.30190207	    -16.81125317	     -4.97909127	     13.04833583	      5.72956610	    -30.19624236	     16.43325078	     61.14212947	      0.00000000	     34.32000000
      0.18000000	      3.42747377	     -1.84571799	     -8.12235885	     -0.00517849	      0.00447423	      0.00126762	    -25.24575673	     -5.31463858	    -16.79820996	     -4.99237261	     13.06201491	      5.73092975	    -30.18834425	     16.42668294	     61.14139268	      0.00000000	     34.32000000
      0.19000000	      3.42821646	     -1.84633203	     -8.12215940	     -0.00514764	      0.00449763	      0.00114374	    -25.24573317	     -5.31475914	    -16.79842436	     -4.99233541	     13.06152671	      5.73110247	    -30.18840379	     16.42607022	     61.14133537	      0.00000000	     34.32000000
      0.20000000	      3.42875448	     -1.84685804	     -8.12196899	     -0.00512636	      0.00450287	      0.00107760	    -25.24574425	     -5.31487210	    -16.79865045	     -4.99231709	     13.06112079	      5.73124223	    -30.18844808	     16.42559098	     61.14128652	      0.00000000	     34.32000000
      0.21000000	      3.42942512	     -1.84753621	     -8.12173407	     -0.00515327	      0.00443723	      0.00107755	    -25.24586037	     -5.31512685	    -16.79895152	     -4.99244579	     13.06083486	      5.73140077	    -30.18854890	     16.42548722	     61.14124610	      0.00000000	     34.32000000
      0.22000000	      3.45783678	     -1.89061163	     -8.10976609	     -0.00514205	      0.00442150	      0.00117460	    -25.25508913	     -5.32782709	    -16.81831816	     -4.99976912	     13.04920599	      5.73853212	    -30.19409511	     16.42262032	     61.13925277	      0.00000000	     34.32000000
      0.23000000	      3.45885163	     -1.89166439	     -8.10944516	     -0.00516091	      0.00438607	      0.00105882	    -25.25524573	     -5.32823836	    -16.81875006	     -4.99997238	     13.04873452	      5.73879811	    -30.19421548	     16.42218467	     61.13922108	      0.00000000	     34.32000000
      0.24000000	      3.46005774	     -1.89248064	     -8.10899067	     -0.00513382	      0.00438560	      0.00095028	    -25.25527789	     -5.32873918	    -16.81911548	     -5.00016397	     13.04798529	      5.73916277	    -30.19433495	     16.42128352	     61.13917261	      0.00000000	     34.32000000
      0.25000000	      3.38550838	     -1.95868270	     -8.13304184	     -0.00500827	      0.00444693	      0.00104174	    -25.27863861	     -5.46199489	    -16.86955806	     -5.08463426	     12.97331607	      5.80552268	    -30.16241574	     16.36501664	     61.18085628	      0.00000000	     34.32000000
      0.26000000	      3.38621191	     -1.95859104	     -8.13249302	     -0.00497318	      0.00440643	      0.00098830	    -25.27860531	     -5.46243526	    -16.86951680	     -5.08491537	     12.97310373	      5.80573933	    -30.16235004	     16.36463885	     61.18087922	      0.00000000	     34.32000000
      0.27000000	      3.38717643	     -1.95923027	     -8.13218095	     -0.00498238	      0.00439604	      0.00087684	    -25.27868123	     -5.46284075	    -16.86983850	     -5.08510070	     12.97260014	      5.80600878	    -30.16238196	     16.36406515	     61.18088021	      0.00000000	     34.32000000
      0.28000000	      3.38816323	     -1.96042212	     -8.13212915	     -0.00500988	      0.00442147	      0.00074369	    -25.27883059	     -5.46312055	    -16.87046803	     -5.08512550	     12.97183356	      5.80629267	    -30.16251063	     16.36330663	     61.18086027	      0.00000000	     34.32000000
      0.29000000	      3.40028599	     -1.99751280	     -8.12480298	     -0.00497535	      0.00451246	      0.00078986	    -25.28711367	     -5.47292611	    -16.89570622	     -5.08710431	     12.94846936	      5.81527774	    -30.16515311	     16.33820346	     61.18140249	      0.00000000	     34.32000000
      0.30000000	      3.39954504	     -1.99803506	     -8.12519372	     -0.00499500	      0.00454568	      0.00079610	    -25.28731570	     -5.47266255	    -16.89610480	     -5.08691927	     12.94848702	      5.81516814	    -30.16514873	     16.33834624	     61.18146307	      0.00000000	     34.32000000
      0.31000000	      3.39846933	     -1.99841359	     -8.12586472	     -0.00501236	      0.00457245	      0.00085503	    -25.28750994	     -5.47218054	    -16.89647957	     -5.08659456	     12.94861503	      5.81495112	    -30.16518154	     16.33885169	     61.18153510	      0.00000000	     34.32000000
